<svg width="256" height="256" viewBox="0 0 256 256" fill="none" xmlns="http://www.w3.org/2000/svg">
<path d="M254.698 128C254.698 197.973 197.973 254.698 128 254.698C58.0265 254.698 1.3017 197.973 1.3017 128C1.3017 58.0265 58.0265 1.3017 128 1.3017C197.973 1.3017 254.698 58.0265 254.698 128ZM29.7531 128C29.7531 182.26 73.7397 226.247 128 226.247C182.26 226.247 226.247 182.26 226.247 128C226.247 73.7397 182.26 29.7531 128 29.7531C73.7397 29.7531 29.7531 73.7397 29.7531 128Z" fill="url(#paint0_linear_2119_25)"/>
<path d="M254.698 128C254.698 197.973 197.973 254.698 128 254.698C58.0265 254.698 1.3017 197.973 1.3017 128C1.3017 58.0265 58.0265 1.3017 128 1.3017C197.973 1.3017 254.698 58.0265 254.698 128ZM29.7531 128C29.7531 182.26 73.7397 226.247 128 226.247C182.26 226.247 226.247 182.26 226.247 128C226.247 73.7397 182.26 29.7531 128 29.7531C73.7397 29.7531 29.7531 73.7397 29.7531 128Z" fill="white"/>
<path d="M167.268 85.4779C172.66 85.4779 177.03 81.107 177.03 75.7152C177.03 70.3234 172.66 65.9525 167.268 65.9525C161.876 65.9525 157.505 70.3234 157.505 75.7152C157.505 81.107 161.876 85.4779 167.268 85.4779Z" fill="white"/>
<path d="M172.041 187.878C177.432 187.878 181.803 183.507 181.803 178.115C181.803 172.723 177.432 168.353 172.041 168.353C166.649 168.353 162.278 172.723 162.278 178.115C162.278 183.507 166.649 187.878 172.041 187.878Z" fill="white"/>
<path d="M200.027 136.244C204.58 136.244 208.271 132.553 208.271 128C208.271 123.447 204.58 119.756 200.027 119.756C195.474 119.756 191.783 123.447 191.783 128C191.783 132.553 195.474 136.244 200.027 136.244Z" fill="white"/>
<path d="M80.2712 183.105C84.8243 183.105 88.5153 179.414 88.5153 174.861C88.5153 170.308 84.8243 166.617 80.2712 166.617C75.7181 166.617 72.0271 170.308 72.0271 174.861C72.0271 179.414 75.7181 183.105 80.2712 183.105Z" fill="white"/>
<path d="M128 64.217C132.553 64.217 136.244 60.526 136.244 55.9729C136.244 51.4198 132.553 47.7288 128 47.7288C123.447 47.7288 119.756 51.4198 119.756 55.9729C119.756 60.526 123.447 64.217 128 64.217Z" fill="white"/>
<path d="M55.9729 136.244C60.526 136.244 64.217 132.553 64.217 128C64.217 123.447 60.526 119.756 55.9729 119.756C51.4198 119.756 47.7288 123.447 47.7288 128C47.7288 132.553 51.4198 136.244 55.9729 136.244Z" fill="white"/>
<path d="M128 208.271C132.553 208.271 136.244 204.58 136.244 200.027C136.244 195.474 132.553 191.783 128 191.783C123.447 191.783 119.756 195.474 119.756 200.027C119.756 204.58 123.447 208.271 128 208.271Z" fill="white"/>
<path d="M80.2712 89.383C84.8243 89.383 88.5153 85.692 88.5153 81.139C88.5153 76.5859 84.8243 72.8949 80.2712 72.8949C75.7181 72.8949 72.0271 76.5859 72.0271 81.139C72.0271 85.692 75.7181 89.383 80.2712 89.383Z" fill="white"/>
<path d="M114.115 124.557L120.251 130.694L166.273 84.6717L160.137 78.5355L114.115 124.557Z" fill="white"/>
<path d="M119.723 142.38L113.587 136.244L79.8374 169.993L85.9737 176.13L119.723 142.38Z" fill="white"/>
<path d="M132.401 132.339L126.264 138.475L166.15 178.361L172.286 172.225L132.401 132.339Z" fill="white"/>
<path d="M99.8583 101.966L93.722 108.102L112.131 126.511L118.267 120.375L99.8583 101.966Z" fill="white"/>
<path d="M161.346 112.007L155.21 105.871L124.529 136.552L130.665 142.689L161.346 112.007Z" fill="white"/>
<path d="M110.644 85.9119L121.492 85.9119L121.492 172.692L110.644 172.692L110.644 85.9119Z" fill="white"/>
<defs>
<linearGradient id="paint0_linear_2119_25" x1="-38.4" y1="58.7932" x2="294.617" y2="175.295" gradientUnits="userSpaceOnUse">
<stop offset="0.0316915" stop-color="#E57727"/>
<stop offset="0.0915971" stop-color="#E57727"/>
<stop offset="0.16" stop-color="#DE6624"/>
<stop offset="0.31" stop-color="#AC3838"/>
<stop offset="0.424959" stop-color="#853B60"/>
<stop offset="0.570325" stop-color="#763C65"/>
<stop offset="0.68972" stop-color="#1E2A5A"/>
<stop offset="0.847329" stop-color="#20707F"/>
<stop offset="0.931875" stop-color="#20878B"/>
</linearGradient>
</defs>
</svg>
